<?xml version="1.0" encoding="utf-8"?>
<!-- Generator: Adobe Illustrator 22.0.1, SVG Export Plug-In . SVG Version: 6.00 Build 0)  -->
<svg version="1.1" id="Layer_1" xmlns="http://www.w3.org/2000/svg" xmlns:xlink="http://www.w3.org/1999/xlink" x="0px" y="0px"
	 viewBox="0 0 500 500" style="enable-background:new 0 0 500 500;" xml:space="preserve">
<style type="text/css">
	.st0{fill:#FFFFFF;}
</style>
<g>
	<path class="st0" d="M222.8,104.9c3.9,0.2,7.7-0.2,11.5,0.3c11,1.5,19.9,11.6,19.9,22.7c0,5.5,0,11,0,16.5c0,5.4-1.7,10.3-5.1,14.5
		c-0.6,0.8-0.8,1.2-0.1,2.1c3.5,4.5,5.3,9.6,5.2,15.4c-0.1,5.2,0,10.5,0,15.7c0,11.2-8.8,21.3-19.9,22.8c-4.4,0.6-8.9,0.2-13.4,0.3
		c-3.8,0-7.6,0.3-11.4-0.5c-10.7-2.3-18.5-11.9-18.4-22.8c0-6.1-0.2-12.2,0.1-18.4c0.3-4.7,2.1-8.8,5-12.5c0.6-0.7,0.7-1.2,0-1.9
		c-3.5-4.3-5.2-9.3-5.1-14.8c0.1-6.1-0.3-12.3,0.2-18.4c0.7-10.2,9.5-19.3,19.6-20.7C214.9,104.7,218.9,105.1,222.8,104.9z
		 M222.7,199.3c2.7,0,5.4,0,8.1,0c4,0,7.4-3,7.6-7c0.3-5.7,0.3-11.5,0-17.2c-0.2-4.2-3.3-7.2-7.5-7.3c-5.4-0.1-10.8-0.1-16.2,0
		c-4.4,0.1-7.6,3.3-7.7,7.7c-0.1,5.4-0.1,10.8,0,16.2c0.1,4.5,3.5,7.6,8,7.6C217.5,199.3,220.1,199.3,222.7,199.3z M222.7,120.8
		c-2.6,0-5.3,0-7.9,0c-4.2,0-7.6,3.1-7.7,7.3c-0.2,5.6-0.2,11.2,0,16.7c0.1,4.2,3,7,7.2,7.2c5.7,0.3,11.4,0.2,17,0
		c4-0.2,6.9-3.1,7.1-7c0.3-5.7,0.3-11.4,0-17c-0.2-4.2-3.5-7.2-7.8-7.2C228,120.7,225.3,120.8,222.7,120.8z"/>
	<path class="st0" d="M131.1,145.5c0.8,0.1,1.5-0.3,2.2-0.4c2-0.5,3.9-0.8,6-0.8c5.4,0,10.8,0,16.2,0c12.3,0,23,10.7,23,23
		c0,8.3,0,16.6,0,24.8c0,11.1-8.8,21.2-19.8,22.7c-3.4,0.5-6.8,0.3-10.3,0.3c-4.4,0-8.7,0.3-13.1-0.3c-11-1.5-19.9-11.5-19.9-22.6
		c-0.1-21.5,0-43,0-64.5c0-11.2,9-21.2,20.1-22.6c4.7-0.6,9.4-0.2,14.1-0.2c3.9,0,7.7-0.3,11.5,0.8c10.3,2.9,17.4,12.1,17.4,22.8
		c0,2.3,0,4.5,0,6.8c0,0.8-0.1,1.1-1,1.1c-4.6,0-9.1,0-13.7,0c-1,0-1.1-0.4-1.1-1.2c0-2.3,0.1-4.7-0.1-7c-0.4-4.6-3.6-7.4-8.2-7.4
		c-5.1,0-10.3,0-15.4,0c-4.1,0-7.6,3-7.7,7.1C131,133.7,131.1,139.6,131.1,145.5z M162.6,179.8L162.6,179.8
		c0.1-3.8,0.1-7.5,0.1-11.3c-0.1-5.1-3.1-8.3-8.1-8.4c-5.1-0.1-10.3-0.1-15.4,0c-4.6,0.1-7.9,3.2-8,7.7c-0.2,8.1-0.1,16.2,0,24.2
		c0,3.9,3.7,7.4,7.7,7.3c5.4-0.1,10.8,0,16.2,0c4.1,0,7.4-3,7.6-7.1C162.7,188.1,162.6,184,162.6,179.8z"/>
	<path class="st0" d="M315.5,136.3c0-9.9,0-19.9,0-29.8c0-1.2,0.2-1.6,1.5-1.6c4.3,0.1,8.6,0.1,12.9,0c1.1,0,1.4,0.3,1.3,1.4
		c0,14.7,0,29.5-0.1,44.2c0,1.2,0.2,1.7,1.6,1.6c6.3-0.1,12.6-0.1,19,0c1.3,0,1.6-0.4,1.6-1.6c0-14.7,0-29.4-0.1-44.1
		c0-1.2,0.2-1.6,1.5-1.5c4.2,0.1,8.4,0.1,12.6,0c1.4,0,1.6,0.5,1.6,1.7c0,14.6,0,29.2-0.1,43.8c0,1.5,0.4,1.8,1.8,1.7
		c4.3-0.1,8.5,0,12.8-0.1c0.9,0,1.3,0.2,1.3,1.2c-0.1,4.5-0.1,8.9,0,13.4c0,1-0.4,1.2-1.3,1.2c-4.4,0-8.7,0-13.1-0.1
		c-1.3,0-1.5,0.4-1.5,1.6c0,14.7,0,29.4,0.1,44.1c0,1.4-0.3,1.8-1.8,1.7c-4.2-0.1-8.3-0.1-12.5,0c-1.2,0-1.5-0.2-1.5-1.5
		c0-14.7,0-29.5,0.1-44.2c0-1.4-0.4-1.7-1.7-1.7c-11.6,0.1-23.1,0-34.7,0.1c-1.1,0-1.5-0.3-1.5-1.4
		C315.6,156.4,315.5,146.3,315.5,136.3z"/>
	<path class="st0" d="M285.7,123.9c-6.9,4.2-13.6,8.3-20.2,12.4c-0.5-0.3-0.3-0.8-0.3-1.1c0-5,0-10,0-15c0-0.8,0.2-1.3,0.9-1.8
		c6.2-4.3,12.4-8.5,18.6-12.9c0.7-0.5,1.3-0.7,2.2-0.7c4.3,0,8.6,0.1,12.9,0c1.3,0,1.7,0.3,1.7,1.7c0,27.6,0,55.3,0,82.9
		c0,8.1,0,16.2,0,24.3c0,1.3-0.4,1.5-1.6,1.5c-4.3-0.1-8.5-0.1-12.8,0c-1.2,0-1.4-0.3-1.4-1.4c0-28.7,0-57.4,0-86.1
		C285.7,126.5,285.7,125.3,285.7,123.9z"/>
</g>
<g>
	<path class="st0" d="M239.3,459.8c0-35.4,0-70.8,0-106.3c0-1.3,0.3-1.7,1.7-1.7c12.5,0.1,25.1,0,37.6,0c12,0,22.5,10.4,22.5,22.4
		c0,10.7,0,21.5,0,32.2c0,11.9-10.3,22.3-22.2,22.4c-7.6,0.1-15.2,0.1-22.8,0c-0.9,0-1.3,0.1-1.3,1.2c0,9.7,0,19.3,0,29
		c0,0.2,0.1,0.5,0.1,0.7C249.7,459.8,244.5,459.8,239.3,459.8z M254.7,390.4c0,7.2,0,14.4,0,21.6c0,1.1,0.2,1.5,1.4,1.5
		c7.1-0.1,14.2,0,21.3,0c4.9,0,8.1-3.1,8.1-7.9c0.1-10.1,0.1-20.2,0-30.3c0-4.9-3.2-7.9-8.1-7.9c-7.1,0-14.2,0-21.3,0
		c-1.2,0-1.4,0.4-1.4,1.5C254.7,376,254.7,383.2,254.7,390.4z"/>
	<path class="st0" d="M54.4,374.9c0-17.4,0-34.9,0-52.3c0-1.3,0.3-1.6,1.6-1.6c18.5,0,37,0,55.6,0c1.2,0,1.6,0.2,1.6,1.5
		c-0.1,4.1-0.1,8.2,0,12.3c0,1.3-0.3,1.6-1.6,1.6c-13.3-0.1-26.7,0-40-0.1c-1.4,0-1.7,0.4-1.7,1.7c0.1,9.3,0.1,18.5,0,27.8
		c0,1.2,0.3,1.5,1.5,1.5c13.4,0,26.8,0,40.1-0.1c1.4,0,1.6,0.3,1.2,1.6c-1.3,4.1-2.6,8.3-3.8,12.5c-0.3,1.1-0.8,1.4-1.9,1.4
		c-11.9,0-23.7,0-35.6-0.1c-1.2,0-1.6,0.2-1.6,1.5c0.1,9.3,0.1,18.5,0,27.8c0,1.3,0.4,1.5,1.6,1.5c13.3,0,26.7,0,40-0.1
		c1.3,0,1.8,0.3,1.7,1.7c-0.1,4.1-0.1,8.2,0,12.3c0,1.3-0.4,1.5-1.6,1.5c-18.6,0-37.1,0-55.7,0c-1.2,0-1.4-0.3-1.4-1.5
		C54.4,410,54.4,392.4,54.4,374.9z"/>
	<path class="st0" d="M424.2,398c-7.2,0-14.4,0-21.6,0c-1.3,0-1.6,0.3-1.5,1.5c0.1,2.3,0,4.7,0.1,7c0.3,3.7,3.1,6.4,6.8,6.8
		c0.6,0.1,1.3,0.1,1.9,0.1c10.9,0,21.9,0,32.8,0c1.3,0,1.6,0.2,1.2,1.5c-1.4,4.3-2.6,8.6-3.9,12.9c-0.2,0.9-0.6,1.1-1.5,1.1
		c-10.3-0.1-20.6,0-30.9-0.1c-10.4-0.1-20.1-8.8-21.6-19.2c-0.2-1.4-0.3-2.8-0.3-4.2c0-10.1,0-20.3,0-30.4
		c0-12.9,10.2-23.1,23.1-23.1c5.2,0,10.5,0,15.7,0c12.3,0,22.7,10.3,22.8,22.6c0,7.4,0,14.8,0,22.2c0,1.2-0.4,1.4-1.5,1.4
		C438.6,398,431.4,398,424.2,398z M416.5,382.6c4.7,0,9.4,0,14.1,0c0.8,0,1.2-0.1,1.2-1.1c-0.1-2.2,0-4.4,0-6.6
		c-0.1-4.1-3-7.3-7-7.5c-5.6-0.3-11.3-0.3-16.9,0c-3.6,0.2-6.4,3.1-6.7,6.7c-0.2,2.4,0,4.8-0.1,7.2c0,1.1,0.3,1.3,1.3,1.3
		C407.1,382.5,411.8,382.6,416.5,382.6z"/>
	<path class="st0" d="M332.4,413.5c6.3,0,12.6,0,19,0c5.9,0,9.7-5.4,7.6-10.6c-1.4-3.5-4.4-4.6-7.8-4.7c-5.5-0.1-11.1-0.1-16.6-0.1
		c-11.9,0-21.9-9.5-22.7-21.6c-0.8-11.9,7.7-22.6,19.4-24.3c1.2-0.2,2.4-0.3,3.7-0.3c10.9,0,21.7,0,32.6,0c1.1,0,1.5,0.3,1.8,1.3
		c1.2,4.3,2.5,8.5,3.8,12.8c0.4,1.2,0.1,1.4-1,1.4c-12,0-24.1,0-36.1,0c-1.1,0-2.2,0-3.2,0.4c-3.6,1.1-5.8,4.4-5.5,8.1
		c0.4,3.8,3.3,6.5,7.5,6.7c5.7,0.4,11.5,0.1,17.2,0.2c8.3,0.1,14.9,3.6,19.3,10.6c4.8,7.5,5.1,15.6,1,23.4s-10.9,12.1-19.8,12.2
		c-11.7,0.2-23.3,0.1-35,0.1c-0.9,0-1.2-0.3-1.4-1.1c-1.3-4.4-2.6-8.8-3.9-13.2c-0.3-1.1-0.1-1.3,0.9-1.2
		C319.5,413.5,325.9,413.5,332.4,413.5z"/>
	<path class="st0" d="M125.2,364.7c0-14.1,0-28.1,0-42.2c0-1.4,0.4-1.6,1.6-1.6c4.1,0.1,8.2,0.1,12.3,0c1.2,0,1.5,0.3,1.5,1.5
		c0,27.4,0,54.8,0,82.1c0,2.3,0.4,4.5,2,6.3c1.7,1.8,3.8,2.6,6.2,2.6c2.5,0,5.1,0,7.6,0c0.9,0,1.2,0.1,0.9,1.1
		c-1.4,4.5-2.7,9-4.1,13.5c-0.1,0.5-0.2,0.9-0.9,0.9c-6,0.2-11.9-0.4-17-4c-6.6-4.6-10.1-10.9-10.2-19
		C125.1,392.2,125.2,378.5,125.2,364.7z"/>
	<path class="st0" d="M166.7,364.7c0-14.1,0-28.1,0-42.2c0-1.4,0.4-1.6,1.6-1.6c4.1,0.1,8.2,0.1,12.3,0c1.2,0,1.5,0.3,1.5,1.5
		c0,27.4,0,54.8,0,82.1c0,2.3,0.4,4.5,2,6.3c1.7,1.8,3.8,2.6,6.2,2.6c2.5,0,5.1,0,7.6,0c0.9,0,1.2,0.1,0.9,1.1
		c-1.4,4.5-2.7,9-4.1,13.5c-0.1,0.5-0.2,0.9-0.9,0.9c-6,0.2-11.9-0.4-17-4c-6.6-4.6-10.1-10.9-10.2-19
		C166.6,392.2,166.7,378.5,166.7,364.7z"/>
	<path class="st0" d="M208.4,390.2c0-12.3,0-24.6,0-36.9c0-1.2,0.3-1.5,1.5-1.5c4.1,0.1,8.2,0.1,12.3,0c1.3,0,1.6,0.3,1.6,1.6
		c-0.1,17,0,34,0,51c0,7.6,0,15.3,0,22.9c0,1.3-0.4,1.6-1.6,1.6c-4.2-0.1-8.3-0.1-12.5,0c-1.1,0-1.4-0.3-1.4-1.4
		C208.4,415.1,208.4,402.7,208.4,390.2z"/>
</g>
<path class="st0" d="M216,336.4c-2.2,0-4.4,0-6.6,0c-0.8,0-1.1-0.3-1.1-1.1c0-4.4,0-8.9,0-13.3c0-0.9,0.3-1,1.1-1
	c4.4,0,8.8,0,13.2,0c0.9,0,1.2,0.2,1.2,1.1c0,4.4,0,8.8,0,13.2c0,0.9-0.3,1.2-1.2,1.1C220.4,336.4,218.2,336.4,216,336.4z"/>
<polygon class="st0" points="249.9,159.9 250.1,159.9 250,160.1 "/>
<path class="st0" d="M130.6,269.6l0.1,0.1l-0.1,0.1l-0.1-0.1C130.6,269.6,130.6,269.6,130.6,269.6z"/>
<g>
	<path class="st0" d="M40,158.6c5.6-44.2,62.2-75.7,139.4-84c0.6-0.1,1.1-0.2,1.7-0.3c-4.6-1-9.2-1.6-13.8-2.1
		c-16.1-1.8-32.1-1.8-48.1-0.2c-15.9,1.6-31.4,4.9-46.6,9.8c-5.1,1.6-10.3,3-14.8,6.2c-12,8.3-23,17.7-31.8,29.4
		c-7.5,10.1-12.9,21.2-14.8,33.8c-0.2,1.4,0,2.9-0.7,4.2c0,3.4,0,6.7,0,10.1c0.3,0.1,0.3,0.4,0.3,0.6c0.3,3.6,0.9,7.2,1.9,10.8
		c3.9,14.4,11.9,26.3,22.1,36.9c10.1,10.5,21.8,19,34.3,26.3c20.7,12,42.8,20.5,65.7,27.1c0.3,0.1,0.6,0.3,0.9,0
		c-0.1-0.1-0.2-0.2-0.3-0.3C73.5,239.5,34.9,198.9,40,158.6z"/>
	<path class="st0" d="M239.3,266c-50.7-5.4-97-18.2-134.5-35.6c0,0,0,0.1,0,0.1c0.3,0.3,0.6,0.5,0.9,0.8
		c26,22.3,55.4,38.1,88.4,47.3c4.4,1.2,8.8,2.7,13.4,3.1c15.4,1.2,30.7,1.7,46.1,1.4c12.8-0.3,25.7-1,38.5-2.2
		c17.4-1.6,34.6-4.3,51.6-8c24.4-5.3,48.1-12.8,70.7-23.5c0.7-0.4,1.5-0.7,2.2-1.1C370,265.9,307.1,273.2,239.3,266z"/>
	<polygon class="st0" points="114.2,229.6 114.4,229.6 114.3,229.7 	"/>
	<path class="st0" d="M136,267.2l0.1,0.1l-0.1,0.1l-0.1-0.1C136,267.2,136,267.2,136,267.2z"/>
	<path class="st0" d="M465,156.4c-5.6,44.2-62.2,75.7-139.4,84c-0.6,0.1-1.1,0.2-1.7,0.3c4.6,1,9.2,1.6,13.8,2.1
		c16.1,1.8,32.1,1.8,48.1,0.2c15.9-1.6,31.4-4.9,46.6-9.8c5.1-1.6,10.3-3,14.8-6.2c12-8.3,23-17.7,31.8-29.4
		c7.5-10.1,12.9-21.2,14.8-33.8c0.2-1.4,0-2.9,0.7-4.2c0-3.4,0-6.7,0-10.1c-0.3-0.1-0.3-0.4-0.3-0.6c-0.3-3.6-0.9-7.2-1.9-10.8
		c-3.9-14.4-11.9-26.3-22.1-36.9c-10.1-10.5-21.8-19-34.3-26.3c-20.7-12-42.8-20.5-65.7-27.1c-0.3-0.1-0.6-0.3-0.9,0
		c0.1,0.1,0.2,0.2,0.3,0.3C431.5,75.5,470.1,116.1,465,156.4z"/>
	<path class="st0" d="M265.7,49c50.7,5.4,97,18.2,134.5,35.6c0,0,0-0.1,0-0.1c-0.3-0.3-0.6-0.5-0.9-0.8
		c-26-22.3-55.4-38.1-88.4-47.3c-4.4-1.2-8.8-2.7-13.4-3.1c-15.4-1.2-30.7-1.7-46.1-1.4c-12.8,0.3-25.7,1-38.5,2.2
		c-17.4,1.6-34.6,4.3-51.6,8C137,47.5,113.3,55,90.7,65.7c-0.7,0.4-1.5,0.7-2.2,1.1C135,49.1,197.9,41.8,265.7,49z"/>
	<polygon class="st0" points="394.8,113.4 394.6,113.4 394.7,113.3 	"/>
</g>
</svg>
