<?xml version="1.0" encoding="utf-8"?>
<!-- Generator: Adobe Illustrator 22.0.1, SVG Export Plug-In . SVG Version: 6.00 Build 0)  -->
<svg version="1.1" id="Layer_1" xmlns="http://www.w3.org/2000/svg" xmlns:xlink="http://www.w3.org/1999/xlink" x="0px" y="0px"
	 viewBox="0 0 600 200" style="enable-background:new 0 0 600 200;" xml:space="preserve">
<style type="text/css">
	.st0{fill:#7C51A5;}
</style>
<g>
	<path class="st0" d="M141.3,67.7c1.9,0.1,3.8-0.1,5.7,0.1c5.5,0.7,9.9,5.8,9.9,11.3c0,2.7,0,5.5,0,8.2c0,2.7-0.8,5.1-2.5,7.2
		c-0.3,0.4-0.4,0.6,0,1c1.7,2.2,2.6,4.8,2.6,7.7c0,2.6,0,5.2,0,7.8c0,5.6-4.4,10.6-9.9,11.4c-2.2,0.3-4.4,0.1-6.7,0.1
		c-1.9,0-3.8,0.1-5.7-0.2c-5.3-1.1-9.2-5.9-9.2-11.4c0-3-0.1-6.1,0-9.2c0.1-2.3,1-4.4,2.5-6.2c0.3-0.3,0.3-0.6,0-0.9
		c-1.7-2.1-2.6-4.6-2.5-7.4c0-3-0.1-6.1,0.1-9.2c0.3-5.1,4.7-9.6,9.8-10.3C137.4,67.6,139.4,67.8,141.3,67.7z M141.3,114.8
		c1.3,0,2.7,0,4,0c2,0,3.7-1.5,3.8-3.5c0.1-2.8,0.1-5.7,0-8.6c-0.1-2.1-1.6-3.6-3.7-3.6c-2.7,0-5.4,0-8.1,0c-2.2,0-3.8,1.6-3.8,3.8
		c0,2.7,0,5.4,0,8.1c0,2.2,1.7,3.8,4,3.8C138.7,114.8,140,114.8,141.3,114.8z M141.3,75.6c-1.3,0-2.6,0-3.9,0
		c-2.1,0-3.8,1.5-3.8,3.6c-0.1,2.8-0.1,5.6,0,8.3c0,2.1,1.5,3.5,3.6,3.6c2.8,0.1,5.7,0.1,8.5,0c2-0.1,3.4-1.5,3.5-3.5
		c0.1-2.8,0.1-5.7,0-8.5c-0.1-2.1-1.7-3.6-3.9-3.6C143.9,75.6,142.6,75.6,141.3,75.6z"/>
	<path class="st0" d="M95.6,88c0.4,0,0.7-0.1,1.1-0.2c1-0.2,1.9-0.4,3-0.4c2.7,0,5.4,0,8.1,0c6.1,0,11.5,5.3,11.5,11.5
		c0,4.1,0,8.3,0,12.4c0,5.5-4.4,10.6-9.9,11.3c-1.7,0.2-3.4,0.1-5.1,0.1c-2.2,0-4.3,0.1-6.5-0.1c-5.5-0.7-9.9-5.7-9.9-11.3
		c0-10.7,0-21.5,0-32.2c0-5.6,4.5-10.6,10-11.3c2.3-0.3,4.7-0.1,7-0.1c1.9,0,3.8-0.1,5.7,0.4c5.1,1.4,8.7,6,8.7,11.4
		c0,1.1,0,2.2,0,3.4c0,0.4,0,0.5-0.5,0.5c-2.3,0-4.5,0-6.8,0c-0.5,0-0.5-0.2-0.5-0.6c0-1.1,0-2.3,0-3.5c-0.2-2.3-1.8-3.7-4.1-3.7
		c-2.5,0-5.1,0-7.7,0c-2,0-3.8,1.5-3.8,3.5C95.5,82.1,95.6,85,95.6,88z M111.3,105.1L111.3,105.1c0-1.9,0-3.7,0-5.6
		c0-2.5-1.5-4.1-4-4.2c-2.5,0-5.1,0-7.7,0c-2.3,0-3.9,1.6-4,3.8c-0.1,4,0,8.1,0,12.1c0,1.9,1.8,3.7,3.8,3.6c2.7,0,5.4,0,8.1,0
		c2,0,3.7-1.5,3.8-3.5C111.3,109.2,111.3,107.2,111.3,105.1z"/>
	<path class="st0" d="M187.6,83.4c0-4.9,0-9.9,0-14.9c0-0.6,0.1-0.8,0.7-0.8c2.1,0,4.3,0,6.4,0c0.5,0,0.7,0.1,0.6,0.7
		c0,7.3,0,14.7,0,22.1c0,0.6,0.1,0.8,0.8,0.8c3.1,0,6.3,0,9.5,0c0.6,0,0.8-0.2,0.8-0.8c0-7.3,0-14.7,0-22c0-0.6,0.1-0.8,0.7-0.7
		c2.1,0,4.2,0,6.3,0c0.7,0,0.8,0.2,0.8,0.8c0,7.3,0,14.6,0,21.9c0,0.7,0.2,0.9,0.9,0.8c2.1,0,4.2,0,6.4,0c0.4,0,0.6,0.1,0.6,0.6
		c0,2.2,0,4.4,0,6.7c0,0.5-0.2,0.6-0.6,0.6c-2.2,0-4.3,0-6.5,0c-0.6,0-0.7,0.2-0.7,0.8c0,7.3,0,14.7,0,22c0,0.7-0.1,0.9-0.9,0.8
		c-2.1,0-4.1,0-6.2,0c-0.6,0-0.7-0.1-0.7-0.7c0-7.3,0-14.7,0-22.1c0-0.7-0.2-0.8-0.8-0.8c-5.8,0-11.5,0-17.3,0
		c-0.5,0-0.7-0.1-0.7-0.7C187.6,93.4,187.6,88.4,187.6,83.4z"/>
	<path class="st0" d="M172.7,77.2c-3.4,2.1-6.8,4.1-10.1,6.2c-0.2-0.1-0.1-0.4-0.1-0.5c0-2.5,0-5,0-7.5c0-0.4,0.1-0.6,0.4-0.9
		c3.1-2.1,6.2-4.2,9.3-6.4c0.3-0.2,0.6-0.3,1.1-0.3c2.1,0,4.3,0,6.4,0c0.6,0,0.8,0.1,0.8,0.8c0,13.8,0,27.6,0,41.4c0,4,0,8.1,0,12.1
		c0,0.6-0.2,0.7-0.8,0.7c-2.1,0-4.2,0-6.4,0c-0.6,0-0.7-0.1-0.7-0.7c0-14.3,0-28.6,0-43C172.7,78.5,172.7,77.9,172.7,77.2z"/>
</g>
<g>
	<g>
		<path class="st0" d="M422.6,154.3c0-24.9,0-49.8,0-74.8c0-0.9,0.2-1.2,1.2-1.2c8.8,0.1,17.7,0,26.5,0c8.4,0,15.8,7.3,15.8,15.8
			c0,7.5,0,15.1,0,22.7c0,8.4-7.3,15.7-15.6,15.8c-5.4,0.1-10.7,0.1-16.1,0c-0.6,0-0.9,0.1-0.9,0.8c0,6.8,0,13.6,0,20.4
			c0,0.1,0.1,0.4,0.1,0.5C429.9,154.3,426.2,154.3,422.6,154.3z M433.4,105.4c0,5.1,0,10.1,0,15.2c0,0.8,0.1,1.1,1,1.1
			c5-0.1,10,0,15,0c3.4,0,5.7-2.2,5.7-5.6c0.1-7.1,0.1-14.2,0-21.3c0-3.4-2.3-5.6-5.7-5.6c-5,0-10,0-15,0c-0.8,0-1,0.3-1,1.1
			C433.4,95.3,433.4,100.4,433.4,105.4z"/>
		<path class="st0" d="M292.4,94.5c0-12.3,0-24.6,0-36.8c0-0.9,0.2-1.1,1.1-1.1c13,0,26.1,0,39.1,0c0.8,0,1.1,0.1,1.1,1.1
			c-0.1,2.9-0.1,5.8,0,8.7c0,0.9-0.2,1.1-1.1,1.1c-9.4-0.1-18.8,0-28.2-0.1c-1,0-1.2,0.3-1.2,1.2c0.1,6.5,0.1,13,0,19.6
			c0,0.8,0.2,1.1,1.1,1.1c9.4,0,18.9,0,28.2-0.1c1,0,1.1,0.2,0.8,1.1c-0.9,2.9-1.8,5.8-2.7,8.8c-0.2,0.8-0.6,1-1.3,1
			c-8.4,0-16.7,0-25.1-0.1c-0.8,0-1.1,0.1-1.1,1.1c0.1,6.5,0.1,13,0,19.6c0,0.9,0.3,1.1,1.1,1.1c9.4,0,18.8,0,28.2-0.1
			c0.9,0,1.3,0.2,1.2,1.2c-0.1,2.9-0.1,5.8,0,8.7c0,0.9-0.3,1.1-1.1,1.1c-13.1,0-26.1,0-39.2,0c-0.8,0-1-0.2-1-1.1
			C292.4,119.2,292.4,106.8,292.4,94.5z"/>
		<path class="st0" d="M552.7,110.8c-5.1,0-10.1,0-15.2,0c-0.9,0-1.1,0.2-1.1,1.1c0.1,1.6,0,3.3,0.1,4.9c0.2,2.6,2.2,4.5,4.8,4.8
			c0.4,0.1,0.9,0.1,1.3,0.1c7.7,0,15.4,0,23.1,0c0.9,0,1.1,0.1,0.8,1.1c-1,3-1.8,6.1-2.7,9.1c-0.1,0.6-0.4,0.8-1.1,0.8
			c-7.3-0.1-14.5,0-21.8-0.1c-7.3-0.1-14.2-6.2-15.2-13.5c-0.1-1-0.2-2-0.2-3c0-7.1,0-14.3,0-21.4c0-9.1,7.2-16.3,16.3-16.3
			c3.7,0,7.4,0,11.1,0c8.7,0,16,7.3,16.1,15.9c0,5.2,0,10.4,0,15.6c0,0.8-0.3,1-1.1,1C562.9,110.8,557.8,110.8,552.7,110.8z
			 M547.3,99.9c3.3,0,6.6,0,9.9,0c0.6,0,0.8-0.1,0.8-0.8c-0.1-1.5,0-3.1,0-4.6c-0.1-2.9-2.1-5.1-4.9-5.3c-3.9-0.2-8-0.2-11.9,0
			c-2.5,0.1-4.5,2.2-4.7,4.7c-0.1,1.7,0,3.4-0.1,5.1c0,0.8,0.2,0.9,0.9,0.9C540.7,99.9,544,99.9,547.3,99.9z"/>
		<path class="st0" d="M488.1,121.7c4.4,0,8.9,0,13.4,0c4.2,0,6.8-3.8,5.4-7.5c-1-2.5-3.1-3.2-5.5-3.3c-3.9-0.1-7.8-0.1-11.7-0.1
			c-8.4,0-15.4-6.7-16-15.2c-0.6-8.4,5.4-15.9,13.7-17.1c0.8-0.1,1.7-0.2,2.6-0.2c7.7,0,15.3,0,23,0c0.8,0,1.1,0.2,1.3,0.9
			c0.8,3,1.8,6,2.7,9c0.3,0.8,0.1,1-0.7,1c-8.4,0-17,0-25.4,0c-0.8,0-1.5,0-2.3,0.3c-2.5,0.8-4.1,3.1-3.9,5.7
			c0.3,2.7,2.3,4.6,5.3,4.7c4,0.3,8.1,0.1,12.1,0.1c5.8,0.1,10.5,2.5,13.6,7.5c3.4,5.3,3.6,11,0.7,16.5s-7.7,8.5-13.9,8.6
			c-8.2,0.1-16.4,0.1-24.6,0.1c-0.6,0-0.8-0.2-1-0.8c-0.9-3.1-1.8-6.2-2.7-9.3c-0.2-0.8-0.1-0.9,0.6-0.8
			C479,121.7,483.5,121.7,488.1,121.7z"/>
		<path class="st0" d="M342.2,87.3c0-9.9,0-19.8,0-29.7c0-1,0.3-1.1,1.1-1.1c2.9,0.1,5.8,0.1,8.7,0c0.8,0,1.1,0.2,1.1,1.1
			c0,19.3,0,38.6,0,57.8c0,1.6,0.3,3.2,1.4,4.4c1.2,1.3,2.7,1.8,4.4,1.8c1.8,0,3.6,0,5.4,0c0.6,0,0.8,0.1,0.6,0.8
			c-1,3.2-1.9,6.3-2.9,9.5c-0.1,0.4-0.1,0.6-0.6,0.6c-4.2,0.1-8.4-0.3-12-2.8c-4.6-3.2-7.1-7.7-7.2-13.4
			C342.2,106.7,342.2,97,342.2,87.3z"/>
		<path class="st0" d="M371.4,87.3c0-9.9,0-19.8,0-29.7c0-1,0.3-1.1,1.1-1.1c2.9,0.1,5.8,0.1,8.7,0c0.8,0,1.1,0.2,1.1,1.1
			c0,19.3,0,38.6,0,57.8c0,1.6,0.3,3.2,1.4,4.4c1.2,1.3,2.7,1.8,4.4,1.8c1.8,0,3.6,0,5.4,0c0.6,0,0.8,0.1,0.6,0.8
			c-1,3.2-1.9,6.3-2.9,9.5c-0.1,0.4-0.1,0.6-0.6,0.6c-4.2,0.1-8.4-0.3-12-2.8c-4.6-3.2-7.1-7.7-7.2-13.4
			C371.4,106.7,371.4,97,371.4,87.3z"/>
		<path class="st0" d="M400.8,105.3c0-8.7,0-17.3,0-26c0-0.8,0.2-1.1,1.1-1.1c2.9,0.1,5.8,0.1,8.7,0c0.9,0,1.1,0.2,1.1,1.1
			c-0.1,12,0,23.9,0,35.9c0,5.4,0,10.8,0,16.1c0,0.9-0.3,1.1-1.1,1.1c-3-0.1-5.8-0.1-8.8,0c-0.8,0-1-0.2-1-1
			C400.8,122.8,400.8,114.1,400.8,105.3z"/>
	</g>
	<path class="st0" d="M406.1,67.4c-1.5,0-3.1,0-4.6,0c-0.6,0-0.8-0.2-0.8-0.8c0-3.1,0-6.3,0-9.4c0-0.6,0.2-0.7,0.8-0.7
		c3.1,0,6.2,0,9.3,0c0.6,0,0.8,0.1,0.8,0.8c0,3.1,0,6.2,0,9.3c0,0.6-0.2,0.8-0.8,0.8C409.2,67.4,407.7,67.4,406.1,67.4z"/>
</g>
<polygon class="st0" points="154.9,95.2 155,95.2 154.9,95.2 "/>
<path class="st0" d="M517,149.9L517,149.9L517,149.9L517,149.9C517,149.9,517,149.9,517,149.9z"/>
<g>
	<path class="st0" d="M50.1,94.5c2.8-22,31-37.8,69.5-41.9c0.3,0,0.6-0.1,0.8-0.1c-2.3-0.5-4.6-0.8-6.9-1c-8-0.9-16-0.9-24-0.1
		c-7.9,0.8-15.7,2.4-23.3,4.9c-2.5,0.8-5.1,1.5-7.4,3.1c-6,4.1-11.5,8.8-15.9,14.7c-3.7,5-6.4,10.6-7.4,16.9c-0.1,0.7,0,1.4-0.3,2.1
		c0,1.7,0,3.3,0,5c0.1,0,0.1,0.2,0.1,0.3c0.1,1.8,0.4,3.6,0.9,5.4c1.9,7.2,5.9,13.1,11,18.4c5,5.2,10.9,9.5,17.1,13.1
		c10.3,6,21.4,10.2,32.8,13.5c0.1,0,0.3,0.1,0.4,0c0-0.1-0.1-0.1-0.1-0.2C66.8,134.9,47.6,114.6,50.1,94.5z"/>
	<path class="st0" d="M149.6,148.1c-25.3-2.7-48.4-9.1-67.1-17.8c0,0,0,0,0,0.1c0.1,0.1,0.3,0.2,0.4,0.4c13,11.1,27.6,19,44.1,23.6
		c2.2,0.6,4.4,1.3,6.7,1.5c7.7,0.6,15.3,0.8,23,0.7c6.4-0.1,12.8-0.5,19.2-1.1c8.7-0.8,17.3-2.1,25.7-4c12.2-2.6,24-6.4,35.3-11.7
		c0.4-0.2,0.7-0.3,1.1-0.5C214.8,148.1,183.4,151.7,149.6,148.1z"/>
	<polygon class="st0" points="87.2,130 87.3,130 87.2,130 	"/>
	<path class="st0" d="M98,148.7L98,148.7L98,148.7L98,148.7C98,148.7,98,148.7,98,148.7z"/>
	<path class="st0" d="M262.2,93.4c-2.8,22-31,37.8-69.5,41.9c-0.3,0-0.6,0.1-0.8,0.1c2.3,0.5,4.6,0.8,6.9,1c8,0.9,16,0.9,24,0.1
		c7.9-0.8,15.7-2.4,23.3-4.9c2.5-0.8,5.1-1.5,7.4-3.1c6-4.1,11.5-8.8,15.9-14.7c3.7-5,6.4-10.6,7.4-16.9c0.1-0.7,0-1.4,0.3-2.1
		c0-1.7,0-3.3,0-5c-0.1,0-0.1-0.2-0.1-0.3c-0.1-1.8-0.4-3.6-0.9-5.4c-1.9-7.2-5.9-13.1-11-18.4c-5-5.2-10.9-9.5-17.1-13.1
		c-10.3-6-21.4-10.2-32.8-13.5c-0.1,0-0.3-0.1-0.4,0c0,0.1,0.1,0.1,0.1,0.2C245.5,53,264.7,73.3,262.2,93.4z"/>
	<path class="st0" d="M162.8,39.8c25.3,2.7,48.4,9.1,67.1,17.8c0,0,0,0,0-0.1c-0.1-0.1-0.3-0.2-0.4-0.4c-13-11.1-27.6-19-44.1-23.6
		c-2.2-0.6-4.4-1.3-6.7-1.5c-7.7-0.6-15.3-0.8-23-0.7c-6.4,0.1-12.8,0.5-19.2,1.1c-8.7,0.8-17.3,2.1-25.7,4
		c-12.2,2.6-24,6.4-35.3,11.7c-0.4,0.2-0.7,0.3-1.1,0.5C97.5,39.9,128.9,36.2,162.8,39.8z"/>
	<polygon class="st0" points="227.1,71.9 227,71.9 227.1,71.9 	"/>
</g>
</svg>
