<?xml version="1.0" encoding="UTF-8" standalone="no"?>
<!-- Created with Inkscape (http://www.inkscape.org/) -->

<svg
   xmlns:dc="http://purl.org/dc/elements/1.1/"
   xmlns:cc="http://creativecommons.org/ns#"
   xmlns:rdf="http://www.w3.org/1999/02/22-rdf-syntax-ns#"
   xmlns:svg="http://www.w3.org/2000/svg"
   xmlns="http://www.w3.org/2000/svg"
   xmlns:sodipodi="http://sodipodi.sourceforge.net/DTD/sodipodi-0.dtd"
   xmlns:inkscape="http://www.inkscape.org/namespaces/inkscape"
   id="svg2"
   version="1.1"
   inkscape:version="0.91 r13725"
   width="1200"
   height="341"
   viewBox="0 0 1200 341"
   sodipodi:docname="AndrewCorporationLogo.svg">
  <metadata
     id="metadata8">
    <rdf:RDF>
      <cc:Work
         rdf:about="">
        <dc:format>image/svg+xml</dc:format>
        <dc:type
           rdf:resource="http://purl.org/dc/dcmitype/StillImage" />
        <dc:title />
      </cc:Work>
    </rdf:RDF>
  </metadata>
  <defs
     id="defs6" />
  <sodipodi:namedview
     pagecolor="#ffffff"
     bordercolor="#666666"
     borderopacity="1"
     objecttolerance="10"
     gridtolerance="10"
     guidetolerance="10"
     inkscape:pageopacity="0"
     inkscape:pageshadow="2"
     inkscape:window-width="1440"
     inkscape:window-height="793"
     id="namedview4"
     showgrid="false"
     inkscape:zoom="0.40776491"
     inkscape:cx="656.95268"
     inkscape:cy="-25.691477"
     inkscape:window-x="0"
     inkscape:window-y="0"
     inkscape:window-maximized="0"
     inkscape:current-layer="svg2" />
  <path
     style="fill:#2b1100"
     d="m 1159.3581,333.52535 c -20.203,-11.58643 -11.6302,-42.97774 11.7371,-42.97774 23.184,0 31.8405,30.83665 12.0008,42.75 -4.6444,2.78887 -6.3409,3.24867 -11.9566,3.24062 -5.4336,-0.008 -7.433,-0.5191 -11.7813,-3.01288 z m 20.5269,-1.87133 c 6.9919,-3.56853 10.4102,-9.58442 10.4102,-18.32117 0,-11.86387 -8.8275,-20.3433 -20.3596,-19.55673 -16.0146,1.09232 -24.0482,19.50039 -14.1946,32.52514 5.2332,6.91731 16.28,9.3664 24.144,5.35276 z m -17.7898,-18.10641 0,-13 7.8651,0 c 6.4428,0 8.3417,0.37482 10.5,2.07258 4.5507,3.57952 3.0723,10.1811 -2.621,11.7037 l -2.7535,0.73641 3.5047,5.20421 c 4.0319,5.987 4.1162,6.28831 1.7547,6.26818 -1.0724,-0.009 -3.1051,-2.3264 -5.25,-5.98508 -2.9223,-4.98467 -3.9539,-5.97262 -6.25,-5.98508 -2.6961,-0.0146 -2.75,0.10267 -2.75,5.98508 0,5.33333 -0.2222,6 -2,6 -1.8974,0 -2,-0.66667 -2,-13 z m 15.9743,-2.48411 c 0.5641,-0.34866 1.0257,-1.93081 1.0257,-3.51589 0,-3.57372 -0.6963,-4.00995 -7.5257,-4.71481 l -5.4743,-0.565 0,5.27981 0,5.27981 5.4743,-0.565 c 3.0109,-0.31075 5.9359,-0.85026 6.5,-1.19892 z m -956.92151,22.23411 c 0.029,-0.6875 15.44153,-31.85 34.25,-69.25 l 34.19723,-68 27.94857,0 27.94857,0 8.75125,66.5 c 4.81319,36.575 8.77383,67.7375 8.80143,69.25 l 0.0502,2.75 -24.37131,0 -24.37132,0 -1.26072,-9.52533 -1.26073,-9.52534 -15.01586,0.27534 -15.01585,0.27533 -4.02189,9.25 -4.02188,9.25 -26.33022,0 c -20.42565,0 -26.31839,-0.28031 -26.27745,-1.25 z m 88.95369,-54 c 0.0111,-5.58735 -2.30386,-33.78594 -2.73802,-33.35177 -0.227,0.227 -3.48177,8.55526 -7.23281,18.50725 l -6.82009,18.09452 8.39223,0 8.39223,0 0.006,-3.25 z m 68.99581,54 c 0.001,-0.6875 5.17624,-31.12832 11.5,-67.64627 6.32375,-36.51795 11.49773,-66.78804 11.49773,-67.26688 0,-0.47884 11.57526,-0.75052 25.72281,-0.60373 l 25.7228,0.26688 12.00814,28.71905 c 6.60448,15.79548 12.28857,28.39548 12.63131,28 0.34274,-0.39548 2.75101,-11.51905 5.3517,-24.71905 2.6007,-13.2 5.17864,-26.1375 5.72875,-28.75 l 1.00022,-4.75 25.48452,0 c 23.79414,0 25.45147,0.11608 24.98623,1.75 -0.27406,0.9625 -6.24516,32.0125 -13.26911,69 l -12.77083,67.25 -24.05028,0 -24.05028,0 -12.44548,-30.65751 c -6.84502,-16.86163 -12.55883,-30.24913 -12.69735,-29.75 -0.13852,0.49913 -2.30822,11.93251 -4.82155,25.40751 -2.51333,13.475 -5.04303,26.8625 -5.62155,29.75 l -1.05185,5.25 -25.4291,0 c -19.67782,0 -25.42859,-0.28271 -25.42683,-1.25 z m 165.99773,-0.69512 c 0,-1.17717 4.95,-32.10827 11,-68.73576 6.05,-36.62748 11,-66.78878 11,-67.02509 0,-0.23632 16.0875,-0.27127 35.75,-0.0777 35.72132,0.35172 35.75642,0.35416 43.75002,3.04223 11.0706,3.72281 19.6229,9.07067 26.9858,16.87459 7.2802,7.71621 11.0779,15.09525 13.2496,25.74444 2.9155,14.29653 -0.7085,36.53199 -8.3344,51.13721 -7.36,14.09593 -18.6013,24.74989 -33.901,32.12978 -16.5643,7.98983 -17.3094,8.09531 -60.75002,8.60021 l -38.75,0.45039 0,-2.14033 z m 72.21252,-44.03458 c 11.4018,-4.26897 17.718,-13.25725 18.5624,-26.41549 0.3582,-5.58037 0.067,-8.02769 -1.2693,-10.67276 -3.8589,-7.63797 -10.9181,-12.60388 -19.324,-13.59382 l -4.6816,-0.55133 -3.90985,24.85655 c -2.15041,13.6711 -4.11539,25.64405 -4.36663,26.60655 -0.39074,1.49693 0.27771,1.75 4.62232,1.75 2.79351,0 7.45846,-0.89086 10.36666,-1.9797 z m 73.493,42.7297 c 0.3606,-1.7875 6.5564,-33.4 13.7684,-70.25 l 13.1129,-67 37.2481,-0.26221 c 41.2534,-0.29041 44.9331,0.0923 56.3636,5.86243 8.2045,4.14163 15.9722,12.18031 18.9421,19.60297 1.9876,4.96735 2.3223,7.58542 2.3394,18.29681 0.019,12.01524 -0.1045,12.7627 -3.1886,19.27383 -4.1148,8.6869 -12.1097,16.77899 -20.4983,20.74743 -3.4612,1.63744 -6.8556,2.97752 -7.5431,2.97795 -0.6875,4.3e-4 -1.2477,0.56329 -1.2448,1.25079 0,0.6875 4.7279,12.43744 10.5,26.11097 5.7721,13.67353 10.4948,25.26103 10.4948,25.75 0,0.49712 -12.1021,0.88903 -27.453,0.88903 l -27.453,0 -0.9104,-3.25 c -2.9196,-10.42256 -12.5357,-41.73029 -12.7501,-41.51095 -0.1403,0.14352 -1.4983,10.27345 -3.0179,22.51095 l -2.7628,22.25 -28.3014,0 -28.3014,0 0.6555,-3.25 z m 81.922,-77.35702 c 5.4349,-1.92882 7.5057,-4.38738 8.0883,-9.6024 0.8287,-7.41912 -5.4821,-12.79058 -15.0274,-12.79058 l -4.3758,0 -1.4563,12.03332 c -0.801,6.61832 -1.263,12.22671 -1.0266,12.46308 0.752,0.75198 9.5172,-0.58425 13.7978,-2.10342 z m 63.7033,78.35702 c 0.3013,-1.2375 6.0064,-32.60627 12.6782,-69.70838 6.6718,-37.10211 12.3507,-67.81461 12.6198,-68.25 0.269,-0.43539 21.3877,-0.79162 46.9302,-0.79162 l 46.441,0 0,2.25 c 0,1.2375 -1.3522,9.39458 -3,18.12684 -1.6478,8.73227 -2.996,16.26977 -2.996,16.75 0,0.48024 -9.6225,0.87316 -21.3834,0.87316 -21.33,0 -21.3849,0.006 -21.9863,2.25 -0.3317,1.2375 -0.6092,3.9375 -0.6167,6 l -0.014,3.75 19.5,0 c 10.725,0 19.4947,0.3375 19.4883,0.75 -0.01,0.4125 -1.3565,8.38579 -3,17.71843 -1.6436,9.33264 -2.9883,17.32014 -2.9883,17.75 0,0.42986 -8.7357,0.78157 -19.4127,0.78157 l -19.4127,0 -0.8373,6.25 -0.8373,6.25 22.5,0.5 c 19.1652,0.42589 22.4868,0.72232 22.4106,2 -0.049,0.825 -1.3635,9.9375 -2.9206,20.25 l -2.8313,18.75 -50.4377,0 -50.4378,0 0.5477,-2.25 z m 145.2411,1 c -0.201,-0.6875 -2.4688,-30.05 -5.0397,-65.25 -2.5709,-35.2 -4.9293,-66.3625 -5.241,-69.25 l -0.5666,-5.25 24.6377,0 24.63766,0 0.012,3.75 c 0.02,6.25605 2.9054,58.50061 3.2502,58.8454 0.1768,0.17684 5.8739,-13.27228 12.6601,-29.88693 6.7862,-16.61466 12.785,-30.77097 13.3306,-31.45847 0.7321,-0.92235 6.0376,-1.25 20.2408,-1.25 l 19.2487,0 0.5856,4.75 c 0.3221,2.6125 1.5743,16.225 2.7828,30.25 1.2084,14.025 2.4654,25.80981 2.7932,26.18848 0.3279,0.37866 5.7241,-13.23384 11.9916,-30.25 l 11.3954,-30.93848 27.8679,0 27.8679,0 -1.3455,3.25 c -0.74,1.7875 -13.6499,33.5125 -28.6887,70.5 l -27.3432,67.25 -25.8247,0 -25.8247,0 -0.031,-2.25 c -0.061,-4.46377 -5.7051,-57.81935 -6.1646,-58.27881 -0.2589,-0.25894 -6.235,13.25411 -13.2801,30.029 l -12.8092,30.49981 -25.3889,0 c -19.44966,0 -25.47446,-0.29242 -25.75426,-1.25 z M 146.09522,241.15808 c 0,-0.21424 0.66172,-3.92674 1.4705,-8.25 3.16269,-16.90603 11.83691,-79.38639 11.12073,-80.10257 -0.76606,-0.76606 -101.15496,31.28489 -143.86547,45.93163 -9.7758304,3.35243 -18.0313304,5.83824 -18.3455504,5.52402 -0.85282,-0.85282 3.89690004,-33.72753 5.09075,-35.23518 1.36527,-1.7241 75.0579104,-36.92095 134.5290404,-64.25334 25.48398,-11.712206 109.39789,-49.166339 109.60952,-48.92311 0.0948,0.108943 -0.43179,4.698077 -1.17017,10.198077 -1.8482,13.766714 -1.8379,19.5 0.035,19.5 0.81091,0 22.74841,-7.006168 48.75,-15.569262 36.89879,-12.15186 171.65065,-56.098604 183.60058,-59.877814 2.24391,-0.7096455 2.30401,-0.5839635 1.72441,3.605902 -1.18386,8.557887 -3.54187,36.181993 -3.12418,36.599684 0.23443,0.234428 14.52216,-4.625776 31.75053,-10.800455 C 538.76018,28.219852 618.95214,1.3082175 624.64934,0.11460724 l 3.0541,-0.6398567 -1.9378,15.78642846 -1.9378,15.786428 -53.02149,27 C 516.1417,85.884359 439.84384,125.57995 402.09522,145.82317 c -11.825,6.34131 -21.66309,11.3729 -21.86243,11.18129 -0.19933,-0.1916 0.21523,-7.34572 0.92125,-15.89803 0.70603,-8.55231 0.99542,-15.83791 0.6431,-16.19023 -1.59118,-1.59118 -180.6634,87.21471 -227.32503,112.73554 -6.79593,3.71692 -8.37689,4.37867 -8.37689,3.50634 z"
     id="path3338"
     inkscape:connector-curvature="0" />
</svg>
